<?xml version="1.0" encoding="UTF-8" standalone="no"?>
<!-- Created with Inkscape (http://www.inkscape.org/) -->
<svg
   xmlns:dc="http://purl.org/dc/elements/1.1/"
   xmlns:cc="http://creativecommons.org/ns#"
   xmlns:rdf="http://www.w3.org/1999/02/22-rdf-syntax-ns#"
   xmlns:svg="http://www.w3.org/2000/svg"
   xmlns="http://www.w3.org/2000/svg"
   xmlns:xlink="http://www.w3.org/1999/xlink"
   xmlns:sodipodi="http://sodipodi.sourceforge.net/DTD/sodipodi-0.dtd"
   xmlns:inkscape="http://www.inkscape.org/namespaces/inkscape"
   width="744.09448819"
   height="1052.3622047"
   id="svg2"
   sodipodi:version="0.32"
   inkscape:version="0.46"
   sodipodi:docname="EMS_logo.svg"
   inkscape:output_extension="org.inkscape.output.svg.inkscape"
   inkscape:export-filename="/home/swalko/Pictures/Projects/EMS/EMS_logo.png"
   inkscape:export-xdpi="362.86935"
   inkscape:export-ydpi="362.86935">
  <defs
     id="defs4">
    <linearGradient
       id="linearGradient3200">
      <stop
         style="stop-color:#020098;stop-opacity:1;"
         offset="0"
         id="stop3202" />
      <stop
         style="stop-color:#0050ff;stop-opacity:1;"
         offset="1"
         id="stop3204" />
    </linearGradient>
    <linearGradient
       id="linearGradient3192">
      <stop
         style="stop-color:#020098;stop-opacity:1;"
         offset="0"
         id="stop3194" />
      <stop
         style="stop-color:#0300e6;stop-opacity:1;"
         offset="1"
         id="stop3196" />
    </linearGradient>
    <inkscape:perspective
       sodipodi:type="inkscape:persp3d"
       inkscape:vp_x="0 : 526.18109 : 1"
       inkscape:vp_y="0 : 1000 : 0"
       inkscape:vp_z="744.09448 : 526.18109 : 1"
       inkscape:persp3d-origin="372.04724 : 350.78739 : 1"
       id="perspective10" />
    <inkscape:perspective
       id="perspective2390"
       inkscape:persp3d-origin="372.04724 : 350.78739 : 1"
       inkscape:vp_z="744.09448 : 526.18109 : 1"
       inkscape:vp_y="0 : 1000 : 0"
       inkscape:vp_x="0 : 526.18109 : 1"
       sodipodi:type="inkscape:persp3d" />
    <linearGradient
       inkscape:collect="always"
       xlink:href="#linearGradient3200"
       id="linearGradient3206"
       x1="274.28464"
       y1="250.9892"
       x2="512.11664"
       y2="488.8212"
       gradientUnits="userSpaceOnUse" />
    <linearGradient
       inkscape:collect="always"
       xlink:href="#linearGradient3200"
       id="linearGradient3301"
       x1="334.45541"
       y1="277.95758"
       x2="521.51416"
       y2="601.95282"
       gradientUnits="userSpaceOnUse"
       gradientTransform="translate(-446.42857,-57.857143)" />
    <linearGradient
       inkscape:collect="always"
       xlink:href="#linearGradient3200"
       id="linearGradient3309"
       gradientUnits="userSpaceOnUse"
       gradientTransform="matrix(1.1450659,0,0,1.1450659,-503.62535,-117.67644)"
       x1="334.45541"
       y1="277.95758"
       x2="521.51416"
       y2="601.95282" />
    <linearGradient
       inkscape:collect="always"
       xlink:href="#linearGradient3200"
       id="linearGradient3339"
       x1="-121.30836"
       y1="195.04382"
       x2="78.501442"
       y2="541.12457"
       gradientUnits="userSpaceOnUse" />
    <linearGradient
       inkscape:collect="always"
       xlink:href="#linearGradient3200"
       id="linearGradient3346"
       gradientUnits="userSpaceOnUse"
       x1="274.28464"
       y1="250.9892"
       x2="512.11664"
       y2="488.8212"
       gradientTransform="translate(-1951.6147,157.5838)" />
    <linearGradient
       inkscape:collect="always"
       xlink:href="#linearGradient3200"
       id="linearGradient3348"
       gradientUnits="userSpaceOnUse"
       gradientTransform="translate(-446.42857,-57.857143)"
       x1="334.45541"
       y1="277.95758"
       x2="521.51416"
       y2="601.95282" />
    <linearGradient
       inkscape:collect="always"
       xlink:href="#linearGradient3200"
       id="linearGradient3350"
       gradientUnits="userSpaceOnUse"
       x1="-121.30836"
       y1="195.04382"
       x2="78.501442"
       y2="541.12457" />
  </defs>
  <sodipodi:namedview
     id="base"
     pagecolor="#ffffff"
     bordercolor="#666666"
     borderopacity="1.0"
     gridtolerance="10000"
     guidetolerance="10"
     objecttolerance="10"
     inkscape:pageopacity="0.0"
     inkscape:pageshadow="2"
     inkscape:zoom="0.7"
     inkscape:cx="193.56525"
     inkscape:cy="596.49326"
     inkscape:document-units="px"
     inkscape:current-layer="layer1"
     showgrid="false"
     inkscape:window-width="1920"
     inkscape:window-height="1138"
     inkscape:window-x="-5"
     inkscape:window-y="-3" />
  <metadata
     id="metadata7">
    <rdf:RDF>
      <cc:Work
         rdf:about="">
        <dc:format>image/svg+xml</dc:format>
        <dc:type
           rdf:resource="http://purl.org/dc/dcmitype/StillImage" />
      </cc:Work>
    </rdf:RDF>
  </metadata>
  <g
     inkscape:label="Layer 1"
     inkscape:groupmode="layer"
     id="layer1">
    <path
       style="fill:url(#linearGradient3346);fill-opacity:1"
       d="M -1626.3022,331.42755 L -1626.5522,390.8963 C -1626.6963,424.08803 -1627.2096,450.74122 -1627.7085,451.24005 C -1628.2332,451.76481 -1631.5546,450.32682 -1635.771,447.7713 C -1639.7197,445.37792 -1644.8219,442.35371 -1647.1147,441.05255 C -1649.4076,439.7514 -1653.5522,437.24453 -1656.3022,435.4588 C -1659.0522,433.67308 -1665.3522,429.796 -1670.3022,426.86505 C -1675.2522,423.93409 -1681.8355,419.83472 -1684.9272,417.74005 C -1688.0189,415.64538 -1690.9021,413.92754 -1691.3335,413.92755 C -1691.7648,413.92755 -1693.5932,412.80256 -1695.396,411.42755 C -1697.1987,410.05255 -1699.0405,408.92762 -1699.4897,408.92755 C -1699.9389,408.92747 -1703.7915,406.67747 -1708.0835,403.92755 C -1712.3754,401.17762 -1716.1586,398.92756 -1716.4897,398.92755 C -1716.8209,398.92755 -1718.5065,397.87943 -1720.2085,396.5838 C -1724.9169,392.99934 -1731.8078,389.72434 -1733.396,390.3338 C -1734.1759,390.63309 -1735.2555,391.97802 -1735.771,393.3338 C -1736.2864,394.68957 -1738.5134,398.79426 -1740.7397,402.4588 C -1742.966,406.12333 -1744.8022,409.26337 -1744.8022,409.42755 C -1744.8022,409.59174 -1749.5562,417.9917 -1755.396,428.0838 C -1761.2357,438.1759 -1767.3771,448.90254 -1769.021,451.92755 C -1770.6649,454.95255 -1772.348,457.87754 -1772.771,458.42755 C -1773.1939,458.97755 -1775.2176,462.50415 -1777.271,466.2713 C -1779.3243,470.03845 -1782.9773,476.33845 -1785.3647,480.2713 C -1791.9741,491.15908 -1796.8022,500.7256 -1796.8022,502.8963 C -1796.8022,503.96996 -1795.7897,505.57066 -1794.5522,506.4588 C -1791.0661,508.96072 -1769.4177,522.15033 -1758.3022,528.55255 C -1752.8022,531.7204 -1742.4522,537.90209 -1735.3022,542.2713 C -1728.1522,546.64051 -1716.9022,553.33419 -1710.3022,557.1463 C -1694.9829,565.99466 -1694.8392,566.11078 -1698.4585,568.67755 C -1700.0179,569.7835 -1704.2272,572.24298 -1707.8022,574.1463 C -1711.3772,576.04961 -1716.4091,578.92218 -1718.9897,580.5213 C -1721.5704,582.12043 -1725.9759,584.77754 -1728.8022,586.42755 C -1731.6285,588.07755 -1735.5188,590.43775 -1737.4272,591.67755 C -1739.3356,592.91736 -1743.8988,595.57451 -1747.5835,597.55255 C -1751.2681,599.53057 -1754.9772,601.72036 -1755.8022,602.42755 C -1756.6272,603.13474 -1759.7772,605.03251 -1762.8022,606.6463 C -1765.8272,608.26009 -1770.7772,611.1757 -1773.8022,613.11505 C -1776.8272,615.0544 -1780.4574,617.24948 -1781.896,618.0213 C -1783.3346,618.79313 -1786.8587,620.67393 -1789.7085,622.2088 C -1792.5582,623.74366 -1795.1217,625.66253 -1795.4272,626.4588 C -1795.9451,627.80848 -1793.112,633.86853 -1785.146,648.42755 C -1783.3404,651.72755 -1780.3466,657.35254 -1778.4897,660.92755 C -1775.0663,667.51876 -1773.6836,670.05393 -1768.3022,679.30255 C -1766.6522,682.13826 -1764.1912,686.90613 -1762.8335,689.92755 C -1761.4757,692.94898 -1759.3382,696.7166 -1758.0835,698.2713 C -1756.8287,699.82599 -1755.7761,701.62599 -1755.771,702.2713 C -1755.7658,702.9166 -1754.3303,705.90254 -1752.5522,708.92755 C -1750.7741,711.95255 -1745.4281,721.85254 -1740.6772,730.92755 C -1735.4092,740.99026 -1731.3666,747.56537 -1730.3335,747.7713 C -1729.4017,747.95701 -1727.88,747.45704 -1726.9585,746.6463 C -1726.0369,745.83557 -1722.8272,743.83119 -1719.8022,742.2088 C -1716.7772,740.58643 -1710.2522,736.8905 -1705.3022,733.99005 C -1700.3522,731.08961 -1694.7272,727.8082 -1692.8022,726.7088 C -1690.8772,725.60942 -1686.8272,723.21314 -1683.8022,721.36505 C -1680.7772,719.51697 -1676.4616,716.9635 -1674.2085,715.7088 C -1667.9766,712.23839 -1648.1473,700.7102 -1643.9897,698.1463 C -1641.9641,696.89716 -1639.6272,695.57823 -1638.8022,695.2088 C -1637.9772,694.83937 -1635.3139,693.29798 -1632.896,691.7713 C -1630.478,690.24464 -1628.1155,689.23111 -1627.646,689.5213 C -1627.1764,689.81149 -1626.8022,716.95794 -1626.8022,749.8338 C -1626.8022,782.70967 -1626.4814,809.90465 -1626.1147,810.2713 C -1625.7481,810.63797 -1594.5818,810.92754 -1556.8335,810.92755 C -1504.7853,810.92755 -1487.8997,810.65007 -1486.9897,809.74005 C -1486.0827,808.83303 -1485.8022,793.69561 -1485.8022,747.74005 C -1485.8022,696.83928 -1485.5776,686.92754 -1484.4272,686.92755 C -1483.6715,686.92755 -1480.9087,688.16504 -1478.3022,689.67755 C -1475.6958,691.19005 -1471.4775,693.57717 -1468.9272,694.99005 C -1466.3769,696.40291 -1460.7022,699.80308 -1456.3022,702.5213 C -1451.9022,705.23952 -1447.1772,708.03397 -1445.8022,708.74005 C -1444.4272,709.44615 -1441.5022,711.0635 -1439.3022,712.3338 C -1437.1022,713.60413 -1433.0522,715.87387 -1430.3022,717.3963 C -1427.5522,718.91873 -1422.9579,721.69498 -1420.1147,723.55255 C -1417.2715,725.41011 -1414.7046,726.92754 -1414.396,726.92755 C -1414.0874,726.92755 -1411.3393,728.51601 -1408.3022,730.4588 C -1405.2651,732.4016 -1402.0133,734.27652 -1401.0522,734.61505 C -1400.0911,734.95358 -1397.9522,736.19739 -1396.3022,737.3963 C -1391.9613,740.55046 -1386.7991,742.92754 -1384.3022,742.92755 C -1382.6201,742.92755 -1381.2951,741.30017 -1378.396,735.67755 C -1376.34,731.69005 -1372.3915,724.60254 -1369.6147,719.92755 C -1366.8379,715.25255 -1362.9112,708.27754 -1360.8647,704.42755 C -1358.8182,700.57755 -1355.9876,695.40254 -1354.5835,692.92755 C -1353.1793,690.45255 -1349.9022,684.60254 -1347.3022,679.92755 C -1344.7022,675.25255 -1342.1141,670.87158 -1341.5522,670.17755 C -1340.5017,668.87983 -1339.3407,666.78346 -1333.8647,656.42755 C -1332.1197,653.12755 -1329.3545,648.17754 -1327.7397,645.42755 C -1324.0292,639.10837 -1319.8022,630.05534 -1319.8022,628.4588 C -1319.8022,626.95503 -1322.3346,624.72016 -1326.3022,622.7088 C -1331.9136,619.86419 -1344.9369,612.10499 -1346.6147,610.61505 C -1347.534,609.79867 -1349.8772,608.48443 -1351.8022,607.67755 C -1354.6968,606.46427 -1361.0447,602.77529 -1378.8022,591.99005 C -1379.6272,591.48898 -1387.0522,587.13286 -1395.3022,582.3338 C -1420.0484,567.93887 -1421.8974,566.72793 -1421.5835,565.0213 C -1421.4234,564.15092 -1418.3238,561.85254 -1414.7085,559.92755 C -1407.1467,555.90131 -1402.3572,553.14347 -1395.3022,548.7713 C -1392.5522,547.06704 -1387.8272,544.35979 -1384.8022,542.74005 C -1381.7772,541.12032 -1376.6022,538.00145 -1373.3022,535.8338 C -1370.0022,533.66616 -1365.9522,531.20334 -1364.3022,530.36505 C -1362.6522,529.52677 -1359.6354,527.86145 -1357.6147,526.6463 C -1355.594,525.43115 -1350.0444,522.17754 -1345.271,519.42755 C -1340.4975,516.67755 -1334.9331,513.45224 -1332.9272,512.2713 C -1330.9213,511.09038 -1327.3897,509.16444 -1325.0522,507.9588 C -1322.7147,506.75316 -1320.7405,505.22225 -1320.6772,504.5838 C -1320.2957,500.73778 -1321.5913,497.6344 -1325.9585,491.92755 C -1327.4276,490.00776 -1329.8272,486.17754 -1331.271,483.42755 C -1332.7147,480.67755 -1337.4672,472.57754 -1341.8335,465.42755 C -1346.1997,458.27755 -1350.2206,451.39838 -1350.771,450.1463 C -1351.3213,448.89423 -1353.4794,445.28278 -1355.5835,442.11505 C -1357.6875,438.94732 -1359.7074,435.70148 -1360.0835,434.8963 C -1361.2521,432.39409 -1372.9771,412.64906 -1376.021,408.05255 C -1376.9753,406.61141 -1378.2177,404.40682 -1378.771,403.1463 C -1379.3243,401.88578 -1381.5904,398.1846 -1383.8022,394.92755 C -1388.1861,388.472 -1388.7251,388.35668 -1394.396,392.61505 C -1396.1,393.89463 -1399.3149,395.94164 -1401.5522,397.17755 C -1403.7895,398.41346 -1412.4332,404.04601 -1420.7397,409.67755 C -1429.0462,415.3091 -1437.6941,420.93411 -1439.9585,422.17755 C -1446.4325,425.73275 -1447.6458,426.498 -1449.521,428.17755 C -1451.7608,430.1838 -1460.1487,435.81058 -1466.9897,439.8963 C -1469.9087,441.63962 -1474.727,444.825 -1477.7085,446.99005 C -1480.6899,449.1551 -1483.7317,450.92754 -1484.4585,450.92755 C -1485.536,450.92755 -1485.8107,439.90125 -1486.021,391.17755 L -1486.3022,331.42755 L -1556.3022,331.42755 L -1626.3022,331.42755 z M -1623.3022,334.42755 L -1556.3022,334.42755 L -1489.3022,334.42755 L -1489.021,395.17755 C -1488.7253,464.85672 -1489.7183,459.22962 -1479.021,452.11505 C -1475.8647,450.01589 -1465.2022,442.89287 -1455.3022,436.30255 C -1445.4022,429.71225 -1435.1827,423.32186 -1432.6147,422.0838 C -1430.0467,420.84575 -1427.4856,419.26303 -1426.896,418.55255 C -1425.6622,417.06599 -1411.6103,407.54315 -1404.396,403.30255 C -1399.5122,400.43186 -1397.5205,399.152 -1392.3022,395.49005 L -1389.521,393.5213 L -1387.3647,396.0213 C -1385.4535,398.24318 -1379.4055,408.3291 -1370.3022,424.3963 C -1368.6522,427.30855 -1363.7022,435.58713 -1359.3022,442.7713 C -1351.1868,456.02183 -1345.61,465.67802 -1343.8647,469.5838 C -1343.3356,470.76787 -1342.4257,472.03028 -1341.8335,472.3963 C -1341.2412,472.76234 -1340.1081,474.49017 -1339.3022,476.24005 C -1338.4964,477.98994 -1336.013,482.27857 -1333.8022,485.7713 C -1331.5914,489.26402 -1329.8022,492.43546 -1329.8022,492.80255 C -1329.8022,493.16965 -1328.6772,495.1228 -1327.3022,497.1463 C -1323.3313,502.98999 -1322.99,502.49812 -1336.3022,510.2713 C -1339.0522,511.87706 -1342.4272,513.82419 -1343.8022,514.61505 C -1345.1772,515.40591 -1348.1022,517.14683 -1350.3022,518.4588 C -1352.5022,519.77077 -1355.8772,521.61565 -1357.8022,522.5838 C -1359.7272,523.55197 -1362.1283,525.04956 -1363.146,525.8963 C -1364.1636,526.74304 -1366.7286,528.32754 -1368.8335,529.42755 C -1372.2946,531.23636 -1381.9826,536.83945 -1391.646,542.61505 C -1393.6568,543.81686 -1397.3272,545.96591 -1399.8022,547.3963 C -1402.2772,548.8267 -1406.1022,551.07376 -1408.3022,552.36505 C -1410.5022,553.65633 -1414.5522,555.89746 -1417.3022,557.36505 C -1420.0522,558.83263 -1423.8772,561.36445 -1425.8022,562.99005 C -1429.2314,565.88585 -1429.2617,565.97916 -1427.3022,567.49005 C -1426.2022,568.33821 -1421.4772,571.11152 -1416.8022,573.6463 C -1412.1272,576.18108 -1406.5022,579.44238 -1404.3022,580.8963 C -1402.1022,582.35022 -1393.7772,587.30348 -1385.8022,591.8963 C -1377.8272,596.48913 -1369.0522,601.69274 -1366.3022,603.4588 C -1363.5522,605.22486 -1358.3772,608.25083 -1354.8022,610.17755 C -1351.2272,612.10427 -1346.0522,615.05062 -1343.3022,616.74005 C -1340.5522,618.42949 -1335.562,621.3949 -1332.2085,623.3338 C -1323.007,628.65375 -1322.8816,628.92475 -1326.6772,636.24005 C -1328.4458,639.64859 -1330.9588,644.22754 -1332.271,646.42755 C -1333.5831,648.62755 -1335.8828,652.67754 -1337.3647,655.42755 C -1338.8466,658.17755 -1342.4179,664.47754 -1345.3022,669.42755 C -1348.1865,674.37755 -1352.2495,681.57754 -1354.3335,685.42755 C -1360.9991,697.74151 -1367.2439,708.97364 -1369.3022,712.36505 C -1370.4022,714.17746 -1373.0355,718.76674 -1375.1772,722.55255 C -1381.534,733.78893 -1384.9329,738.92754 -1385.9897,738.92755 C -1386.9152,738.92755 -1396.0769,733.76116 -1401.8022,729.99005 C -1403.1772,729.08438 -1406.1022,727.5033 -1408.3022,726.49005 C -1410.5022,725.4768 -1414.1022,723.44301 -1416.3022,721.99005 C -1421.7779,718.37374 -1423.4513,717.385 -1429.8022,714.0213 C -1432.8272,712.41915 -1437.017,709.95576 -1439.1147,708.5213 C -1441.2125,707.08683 -1444.3625,705.2449 -1446.1147,704.42755 C -1447.867,703.61021 -1454.4772,699.77459 -1460.8022,695.92755 C -1476.3191,686.48974 -1485.7157,681.689 -1487.396,682.3338 C -1488.5669,682.78311 -1488.8022,692.85731 -1488.8022,745.3963 L -1488.8022,807.92755 L -1556.3022,807.92755 L -1623.8022,807.92755 L -1623.8022,747.55255 C -1623.8022,680.20452 -1623.4309,683.51732 -1630.396,686.42755 C -1632.4769,687.29703 -1635.5601,689.05289 -1637.2397,690.3338 C -1638.9193,691.61473 -1642.7772,693.90884 -1645.8022,695.4588 C -1648.8272,697.00876 -1652.4428,699.06852 -1653.8335,700.0213 C -1655.2241,700.97409 -1658.3741,702.83758 -1660.8335,704.17755 C -1672.0579,710.29313 -1689.582,720.47908 -1692.3022,722.4588 C -1693.9522,723.65962 -1698.0022,725.96042 -1701.3022,727.55255 C -1704.6022,729.14467 -1709.4141,731.89004 -1712.021,733.67755 C -1714.6278,735.46505 -1717.1028,736.9252 -1717.521,736.92755 C -1717.9391,736.92991 -1720.3272,738.28225 -1722.8022,739.92755 C -1725.2772,741.57284 -1728.0013,742.92517 -1728.8647,742.92755 C -1729.7281,742.9299 -1731.5541,740.79004 -1732.9272,738.17755 C -1734.3003,735.56505 -1738.4672,727.59342 -1742.1772,720.4588 C -1745.8872,713.32418 -1749.268,707.02418 -1749.7085,706.4588 C -1750.5589,705.3673 -1755.2838,696.58245 -1766.3647,675.42755 C -1770.1099,668.27755 -1774.6417,659.72754 -1776.4585,656.42755 C -1778.2753,653.12755 -1781.2284,647.6786 -1783.021,644.30255 C -1784.8135,640.9265 -1787.377,636.11941 -1788.7085,633.61505 C -1791.6056,628.16607 -1791.2482,627.46209 -1782.9272,622.74005 C -1779.8292,620.98194 -1772.8965,616.93544 -1767.521,613.74005 C -1762.1455,610.54466 -1757.5679,607.92754 -1757.3335,607.92755 C -1757.099,607.92755 -1754.9033,606.57754 -1752.4585,604.92755 C -1750.0136,603.27755 -1747.7636,601.92754 -1747.4585,601.92755 C -1747.1533,601.92755 -1744.9093,600.59177 -1742.4897,598.9588 C -1740.0701,597.32585 -1735.454,594.47063 -1732.2085,592.61505 C -1728.963,590.75947 -1720.0022,585.4967 -1712.3022,580.92755 C -1704.6022,576.35839 -1696.527,571.66926 -1694.3647,570.49005 C -1689.8634,568.03525 -1689.1197,566.73673 -1691.1147,564.80255 C -1691.8897,564.05121 -1715.0747,549.92754 -1742.646,533.42755 C -1770.2172,516.92755 -1792.7989,502.90333 -1792.8022,502.24005 C -1792.8055,501.57675 -1791.4128,498.6619 -1789.7085,495.7713 C -1788.0041,492.88067 -1785.0007,487.55489 -1783.0522,483.9588 C -1781.1038,480.36272 -1778.8932,476.73335 -1778.146,475.86505 C -1777.3988,474.99674 -1776.8022,473.99127 -1776.8022,473.6463 C -1776.8022,473.30131 -1775.37,470.65174 -1773.646,467.74005 C -1771.9219,464.82834 -1769.1946,459.9503 -1767.5522,456.92755 C -1765.9099,453.90481 -1763.7108,450.36649 -1762.6772,449.05255 C -1761.6437,447.73862 -1760.8022,446.21347 -1760.8022,445.6463 C -1760.8022,445.07914 -1758.7772,441.33602 -1756.3022,437.36505 C -1753.8272,433.39408 -1751.8022,429.82297 -1751.8022,429.42755 C -1751.8022,429.03213 -1750.3824,426.64164 -1748.6772,424.11505 C -1746.972,421.58844 -1745.1851,418.61822 -1744.6772,417.49005 C -1744.1693,416.36189 -1742.6937,413.62756 -1741.396,411.42755 C -1740.0982,409.22755 -1737.8478,405.10193 -1736.396,402.2713 C -1734.9441,399.44066 -1733.1475,396.61377 -1732.396,395.99005 C -1730.7961,394.66225 -1728.2741,395.91198 -1710.8022,406.7088 C -1704.4772,410.61735 -1695.0272,416.41244 -1689.8022,419.55255 C -1684.5772,422.69264 -1679.1772,425.93974 -1677.8022,426.80255 C -1676.4272,427.66535 -1670.5772,431.17964 -1664.8022,434.5838 C -1659.0272,437.98797 -1653.1091,441.68131 -1651.6772,442.80255 C -1650.2454,443.92378 -1647.7704,445.41315 -1646.1772,446.11505 C -1644.5841,446.81695 -1640.3827,449.37055 -1636.8335,451.7713 C -1633.2842,454.17205 -1628.8924,456.35274 -1627.0835,456.6463 L -1623.8022,457.17755 L -1623.5522,395.80255 L -1623.3022,334.42755 z M -1620.3022,338.42755 L -1620.5522,402.17755 C -1620.6992,438.57563 -1621.2002,465.92754 -1621.7085,465.92755 C -1622.1981,465.92755 -1626.7076,463.34004 -1631.7397,460.17755 C -1636.7718,457.01505 -1642.0967,453.75254 -1643.5835,452.92755 C -1645.0702,452.10255 -1649.2272,449.58395 -1652.8022,447.3338 C -1656.3772,445.08366 -1663.1272,440.9947 -1667.8022,438.24005 C -1672.4772,435.48538 -1682.3772,429.50409 -1689.8022,424.9588 C -1722.4927,404.94698 -1727.9661,401.80356 -1729.5835,402.11505 C -1731.1044,402.40797 -1747.8258,429.1419 -1755.4272,443.42755 C -1756.8905,446.17755 -1761.9017,454.95254 -1766.5835,462.92755 C -1779.7376,485.33455 -1786.6609,497.42495 -1787.3335,499.17755 C -1788.1073,501.19423 -1784.6702,503.43711 -1739.3022,530.3963 C -1720.0522,541.8353 -1700.2522,553.67566 -1695.3022,556.7088 C -1690.3522,559.74193 -1685.2609,562.86856 -1683.9897,563.6463 C -1682.7186,564.42403 -1681.8186,565.74127 -1681.9897,566.5838 C -1682.2555,567.89242 -1700.2937,579.17711 -1715.9585,587.8338 C -1718.529,589.25434 -1729.329,595.66164 -1739.9585,602.05255 C -1771.1617,620.81334 -1781.3699,626.84449 -1783.0522,627.49005 C -1783.9228,627.82412 -1784.8882,628.78045 -1785.2085,629.61505 C -1785.7634,631.06121 -1772.7593,656.40323 -1762.9897,672.92755 C -1760.5509,677.05255 -1757.4913,682.67754 -1756.1772,685.42755 C -1753.7071,690.5968 -1745.1975,706.43589 -1738.396,718.5213 C -1736.2558,722.32412 -1733.4293,727.46286 -1732.1147,729.92755 C -1730.8002,732.39226 -1729.3323,734.77248 -1728.8647,735.24005 C -1728.0611,736.04368 -1715.6065,729.99347 -1709.9272,726.05255 C -1708.4843,725.05126 -1704.8272,722.94185 -1701.8022,721.36505 C -1698.7772,719.78823 -1694.9522,717.61127 -1693.3022,716.49005 C -1691.6522,715.36886 -1689.0854,713.75366 -1687.6147,712.92755 C -1686.144,712.10142 -1679.9292,708.50254 -1673.8022,704.92755 C -1667.6752,701.35255 -1660.792,697.38149 -1658.4897,696.0838 C -1656.1874,694.78613 -1651.6022,691.99115 -1648.3022,689.8963 C -1645.0022,687.80147 -1640.5022,685.11841 -1638.3022,683.92755 C -1636.1022,682.73667 -1631.3772,680.05183 -1627.8022,677.9588 C -1624.2272,675.86578 -1620.9647,674.36865 -1620.5522,674.61505 C -1620.1397,674.86142 -1619.8022,703.30794 -1619.8022,737.8338 C -1619.8022,772.35967 -1619.4855,800.90048 -1619.1147,801.2713 C -1618.7439,801.64212 -1590.7314,801.81919 -1556.8647,801.67755 L -1495.3022,801.42755 L -1495.021,736.99005 C -1494.8794,701.53847 -1494.4204,672.17075 -1493.9897,671.74005 C -1493.559,671.30935 -1485.3424,675.72631 -1475.7397,681.55255 C -1466.137,687.37876 -1456.3688,693.2418 -1454.021,694.5838 C -1451.6732,695.92578 -1443.3482,700.88663 -1435.521,705.61505 C -1427.6938,710.34349 -1419.2772,715.35608 -1416.8022,716.74005 C -1414.3272,718.12405 -1408.2522,721.78046 -1403.3022,724.86505 C -1388.9167,733.82947 -1386.9756,734.24071 -1385.2397,728.7713 C -1384.8932,727.67949 -1381.1908,720.86105 -1377.021,713.61505 C -1372.8511,706.36902 -1368.3501,698.40254 -1367.021,695.92755 C -1365.6919,693.45255 -1363.7928,690.07754 -1362.8022,688.42755 C -1360.9265,685.30314 -1355.6455,675.61021 -1352.9897,670.42755 C -1352.1442,668.77755 -1349.7686,664.87016 -1347.7085,661.74005 C -1345.6483,658.60993 -1343.6669,655.10788 -1343.3022,653.9588 C -1342.9375,652.80973 -1341.1097,649.29211 -1339.2397,646.1463 C -1335.0641,639.12187 -1331.8022,632.2252 -1331.8022,630.42755 C -1331.8022,628.94526 -1344.9469,620.58648 -1364.8647,609.42755 C -1372.5531,605.12015 -1407.2802,584.81071 -1421.8022,576.11505 C -1425.9272,573.64505 -1431.4131,570.44556 -1434.021,569.0213 C -1439.3403,566.11624 -1439.8074,565.04756 -1436.5522,562.99005 C -1427.7444,557.42285 -1416.4312,550.61881 -1405.3022,544.17755 C -1398.1522,540.03923 -1389.3772,534.74028 -1385.8022,532.42755 C -1382.2272,530.1148 -1377.2772,527.10228 -1374.8022,525.7088 C -1370.7682,523.4376 -1350.5826,511.3571 -1346.8022,508.9588 C -1345.9772,508.43542 -1342.4897,506.33406 -1339.0522,504.2713 C -1335.4982,502.13861 -1332.8022,499.81812 -1332.8022,498.8963 C -1332.8022,498.00469 -1335.4214,492.82167 -1338.646,487.36505 C -1341.8705,481.90844 -1345.583,475.5277 -1346.896,473.2088 C -1349.0236,469.451 -1364.1938,444.19808 -1368.9897,436.42755 C -1370.0081,434.77755 -1375.2571,426.00254 -1380.646,416.92755 C -1387.9033,404.70604 -1390.9395,400.42756 -1392.3647,400.42755 C -1394.0764,400.42755 -1405.3002,407.73179 -1458.8335,443.7088 C -1466.8296,449.08261 -1474.9296,454.44235 -1476.8335,455.61505 C -1478.7373,456.78775 -1482.9405,459.5835 -1486.1772,461.8338 C -1489.4139,464.08409 -1492.4555,465.92754 -1492.9272,465.92755 C -1493.3989,465.92755 -1493.8794,437.24006 -1494.021,402.17755 L -1494.3022,338.42755 L -1557.3022,338.42755 L -1620.3022,338.42755 z"
       id="path2406" />
    <g
       id="g3341"
       transform="translate(412.14224,145.46197)">
      <path
         id="rect3288"
         d="M -114.99107,123.08036 L -114.99107,245.64286 L -221.14732,184.36161 L -283.99107,293.23661 L -177.86607,354.51786 L -283.99107,415.76786 L -221.14732,524.64286 L -114.99107,463.36161 L -114.99107,585.92411 L 10.727678,585.92411 L 10.727678,463.39286 L 116.85268,524.64286 L 179.69643,415.76786 L 73.571428,354.51786 L 179.69643,293.23661 L 116.85268,184.36161 L 10.727678,245.61161 L 10.727678,123.08036 L -114.99107,123.08036 z"
         style="opacity:1;fill:url(#linearGradient3348);fill-opacity:1;stroke:none;stroke-width:14.57199478;stroke-miterlimit:4;stroke-dasharray:none;stroke-opacity:1" />
      <path
         id="path3323"
         d="M -121,119.09375 C -121,157.84375 -121,196.59375 -121,235.34375 C -155.10316,215.63368 -189.21432,195.93741 -223.3125,176.21875 C -246.2614,215.94732 -269.18338,255.69152 -292.15625,295.40625 C -258.04467,315.13778 -223.91417,334.83664 -189.78125,354.53125 C -223.90643,374.22884 -258.03925,393.91327 -292.15625,413.625 C -269.18338,453.33973 -246.26137,493.08391 -223.3125,532.8125 C -189.21429,513.09389 -155.10318,493.39754 -121,473.6875 C -121,513.10417 -121,552.52083 -121,591.9375 C -75.09375,591.9375 -29.1875,591.9375 16.71875,591.9375 C 16.71875,552.53125 16.71875,513.125 16.71875,473.71875 C 50.807846,493.42472 84.909627,513.10878 119,532.8125 C 141.97287,493.09777 164.89488,453.35359 187.84375,413.625 C 153.72674,393.91328 119.59394,374.22883 85.46875,354.53125 C 119.60168,334.83666 153.73218,315.1378 187.84375,295.40625 C 164.89485,255.67768 141.97287,215.93348 119,176.21875 C 84.909626,195.92247 50.807865,215.60657 16.71875,235.3125 C 16.71875,195.90625 16.71875,156.5 16.71875,117.09375 C -29.1875,117.09375 -75.09375,117.09375 -121,117.09375 L -121,118.09375 L -121,119.09375 z"
         style="opacity:1;fill:none;fill-opacity:1;stroke:url(#linearGradient3350);stroke-width:3;stroke-miterlimit:4;stroke-dasharray:none;stroke-opacity:1" />
      <path
         id="path3240"
         d="M -50.473135,170.77775 C -52.820245,170.81792 -56.745835,174.28365 -60.160635,179.309 C -62.085865,182.14229 -62.827885,184.48292 -62.816885,187.7465 C -62.798105,193.27199 -62.510485,193.66332 -56.566885,196.65275 C -53.952505,197.96771 -49.002485,201.88104 -45.566885,205.3715 C -42.131205,208.86193 -39.037885,211.73939 -38.691885,211.7465 C -38.345875,211.75362 -37.743535,205.28186 -37.348135,197.3715 C -36.591115,182.22766 -37.026135,179.79197 -40.848135,177.7465 C -41.935555,177.16454 -42.816885,176.12107 -42.816885,175.434 C -42.816885,173.8802 -47.984935,170.73515 -50.473135,170.77775 z M -60.473135,199.77775 C -62.823555,199.82766 -66.249295,200.48163 -69.816885,201.809 C -72.841885,202.93448 -76.058935,204.7335 -76.973135,205.809 C -77.887205,206.88448 -79.251285,207.53549 -80.004385,207.2465 C -81.728585,206.58487 -87.195435,212.12337 -89.910635,217.309 C -95.53545,228.05144 -97.58369,242.85768 -94.31688,249.1215 C -93.495315,250.69686 -92.816885,252.88468 -92.816885,253.96525 C -92.816885,256.58966 -85.342635,270.48055 -81.910635,274.2465 C -80.407025,275.8965 -78.464335,278.40407 -77.598135,279.809 C -75.518025,283.18258 -65.828085,293.7465 -64.816885,293.7465 C -64.380995,293.7465 -63.775685,293.05399 -63.441885,292.184 C -63.107995,291.31401 -62.816885,287.72113 -62.816885,284.21525 C -62.816885,277.84165 -62.822735,277.84649 -68.223135,272.40275 C -71.193735,269.40834 -73.942985,265.91375 -74.316885,264.6215 C -74.690855,263.32924 -76.370385,258.8715 -78.066885,254.7465 C -83.335485,241.93612 -82.187935,226.02017 -75.473135,218.559 C -73.733225,216.62571 -70.608785,214.49254 -68.504385,213.809 C -65.098765,212.70278 -64.439185,212.75838 -62.504385,214.46525 C -58.439865,218.05083 -52.262635,220.07613 -47.660635,219.34025 C -39.058845,217.96474 -38.860235,215.74301 -46.660635,207.7465 C -52.601925,201.65583 -55.202485,199.93463 -52.379385,203.96525 C -51.523185,205.18759 -50.816885,207.21262 -50.816885,208.46525 C -50.816885,210.39236 -51.353185,210.7465 -54.254385,210.7465 C -60.119695,210.7465 -63.045385,205.42698 -58.816885,202.46525 C -56.208355,200.63814 -57.451165,199.71358 -60.473135,199.77775 z M -38.285635,220.059 C -38.744705,220.05537 -40.193035,220.59256 -41.754385,221.3715 C -44.775685,222.87867 -49.779185,222.95172 -58.316885,221.59025 C -60.288285,221.27589 -60.308985,221.70336 -59.941885,253.2465 C -59.737065,270.8465 -59.213785,285.73066 -58.754385,286.309 C -58.064265,287.17766 -57.445485,303.29404 -57.004385,331.9965 C -56.913175,337.93525 -55.169385,338.23224 -50.879385,333.02775 C -50.144185,332.13586 -49.501275,331.22616 -48.973135,330.40275 L -45.379385,326.309 C -44.507265,325.7812 -43.368625,324.8225 -42.410635,323.684 C -39.840315,320.62937 -39.828985,320.48031 -39.816885,302.934 C -39.810195,293.21369 -39.362285,270.66734 -38.816885,252.84025 C -38.271575,235.01317 -37.972835,220.27804 -38.160635,220.09025 C -38.184105,220.06678 -38.220055,220.05952 -38.285635,220.059 z M -32.566885,298.4965 C -33.961085,298.73575 -34.816885,299.61809 -34.816885,300.77775 C -34.816885,301.80707 -35.266885,302.90658 -35.816885,303.2465 C -36.366885,303.58642 -36.816885,307.57009 -36.816885,312.09025 C -36.816885,320.09774 -37.722735,323.00654 -41.223135,326.309 C -41.830135,326.88169 -43.849635,328.97925 -45.723135,330.9965 C -48.273225,333.74214 -48.829215,334.71632 -48.160635,335.809 L -51.566885,340.15275 C -51.588695,340.1744 -51.607515,340.19338 -51.629385,340.21525 C -53.117555,341.70401 -54.724985,343.70152 -56.004385,345.7465 C -56.083685,345.87325 -56.289225,346.1362 -56.410635,346.309 L -59.473135,350.184 C -60.760535,351.74216 -62.212865,353.48513 -63.691885,355.15275 C -67.056765,358.94681 -69.816885,362.90466 -69.816885,363.934 C -69.816885,364.96334 -71.035585,367.70118 -72.504385,370.02775 C -77.209395,377.48025 -76.534085,386.69699 -70.441885,398.27775 C -68.098885,402.73154 -60.829935,411.7465 -59.598135,411.7465 C -59.164635,411.7465 -58.816885,408.40154 -58.816885,404.309 C -58.816885,400.21646 -59.290235,396.59127 -59.848135,396.2465 C -62.183255,394.80332 -64.816885,387.62672 -64.816885,382.7465 C -64.816885,376.37331 -63.215535,373.27733 -57.410635,368.46525 C -54.889535,366.37534 -52.816885,364.07259 -52.816885,363.34025 C -52.816885,362.60791 -51.320735,360.84323 -49.473135,359.434 C -47.625555,358.02479 -45.306085,355.15254 -44.316885,353.059 C -43.327605,350.96544 -38.741035,344.9715 -34.160635,339.7465 C -29.580255,334.5215 -25.855935,329.74166 -25.848135,329.1215 C -25.840465,328.50135 -25.147385,327.4358 -24.316885,326.7465 C -21.652655,324.53536 -19.577585,315.39312 -20.754385,311.059 C -22.165295,305.86276 -29.568485,297.98193 -32.566885,298.4965 z M -42.785635,357.7465 C -43.915435,357.7465 -46.963335,360.84917 -50.660635,365.7465 C -52.113945,367.6715 -53.716535,369.57027 -54.223135,369.934 C -55.394045,370.77453 -55.374785,374.25939 -54.004385,413.7465 C -53.383955,431.6215 -52.866035,447.30692 -52.848135,448.59025 C -52.797925,452.19972 -50.735385,450.7457 -46.566885,444.184 L -42.785635,438.2465 L -43.441885,424.7465 C -43.802785,417.3215 -44.049735,410.5715 -43.973135,409.7465 C -41.956055,388.02532 -41.262335,357.7465 -42.785635,357.7465 z M -38.098135,415.7465 C -38.496645,415.7465 -38.816885,420.39621 -38.816885,426.059 L -38.816885,436.34025 L -43.129385,443.34025 C -45.501505,447.18772 -47.745385,451.00677 -48.129385,451.809 C -48.513315,452.61124 -49.610485,454.44972 -50.566885,455.90275 C -60.557705,471.08085 -62.480985,476.24655 -61.504385,485.59025 C -60.818895,492.14895 -57.135435,504.74645 -55.910635,504.74645 C -55.455705,504.74645 -54.873935,499.00915 -54.598135,491.99645 L -54.066885,479.24645 L -48.410635,467.49645 C -45.299615,461.03425 -42.178535,455.7465 -41.473135,455.7465 C -40.767755,455.7465 -38.672335,453.609 -36.785635,450.9965 C -28.182425,439.08327 -27.089235,435.83667 -29.223135,428.4965 C -30.590865,423.79156 -36.182535,415.7465 -38.098135,415.7465 z M -45.598135,469.74645 C -46.763105,469.74675 -48.826835,474.10635 -50.098135,479.24645 C -51.623745,485.41485 -52.161435,499.83955 -50.910635,501.09025 C -50.227335,501.77365 -49.816885,508.26295 -49.816885,518.87145 C -49.816885,536.74375 -49.392835,539.83075 -47.285635,537.59025 C -46.369435,536.61615 -45.853135,527.39505 -45.348135,502.99645 C -44.936465,483.10505 -45.051935,469.74645 -45.598135,469.74645 z"
         style="fill:#ffffff;fill-opacity:1" />
    </g>
  </g>
</svg>
